# xmcd CD database file
#
# Track frame offsets:
#	150
#	20832
#	37500
#	55622
#	76962
#	94222
#	111767
#	134567
#	152185
#	174660
#
# Disc length: 2638 seconds
#
# Revision: 0
# Processed by: cddbd v1.5.1PL0 Copyright (c) Steve Scherf et al.
# Submitted via: CDex 1.51
#
DISCID=790a4c0a
DTITLE=Elvy Sukaesih - The Best Of Elvy Sukaesih
DYEAR=1985
DGENRE=World
TTITLE0=Maharaja
TTITLE1=Pacaran
TTITLE2=Menghitung Bintang
TTITLE3=Gersang
TTITLE4=Bisikan Kasih
TTITLE5=Mandi Madu
TTITLE6=Dangdut Reggae
TTITLE7=Tampan Dan Romantis
TTITLE8=Asmara
TTITLE9=Syirin Farthat
EXTD=YEAR: 1985
EXTT0=
EXTT1=
EXTT2=
EXTT3=
EXTT4=
EXTT5=
EXTT6=
EXTT7=
EXTT8=
EXTT9=
PLAYORDER=
